<?xml version="1.0" standalone="no"?>
<!DOCTYPE svg PUBLIC "-//W3C//DTD SVG 20010904//EN"
 "http://www.w3.org/TR/2001/REC-SVG-20010904/DTD/svg10.dtd">
<svg version="1.0" xmlns="http://www.w3.org/2000/svg"
 width="400.000000pt" height="400.000000pt" viewBox="0 0 400.000000 400.000000"
 preserveAspectRatio="xMidYMid meet">
<metadata>
Created by potrace 1.11, written by Peter Selinger 2001-2013
</metadata>
<g transform="translate(0.000000,400.000000) scale(0.100000,-0.100000)"
fill="#000000" stroke="none">
<path d="M1938 3804 c-2 -1 -40 -5 -86 -8 -109 -8 -352 -60 -352 -75 0 -3 21
-7 47 -9 142 -9 322 -76 465 -173 107 -73 240 -218 293 -319 51 -100 68 -139
85 -194 33 -108 42 -159 45 -271 7 -229 -56 -435 -189 -619 -31 -43 -56 -80
-54 -81 6 -6 158 23 210 41 223 73 425 253 523 467 63 138 93 345 69 481 -3
17 -7 43 -10 58 -19 111 -91 267 -171 368 -144 181 -351 295 -593 326 -40 5
-279 12 -282 8z"/>
<path d="M1303 3584 c-134 -23 -289 -87 -377 -156 -73 -57 -175 -150 -222
-201 -97 -107 -214 -271 -269 -377 l-18 -35 39 34 c100 88 262 173 391 206
100 25 115 27 233 31 388 12 740 -204 917 -561 31 -61 68 -166 78 -220 15 -80
21 -124 19 -139 -10 -67 107 102 159 232 76 187 82 413 16 607 -105 308 -369
529 -694 581 -71 11 -202 10 -272 -2z"/>
<path d="M2870 3592 c0 -5 7 -16 16 -23 21 -17 105 -141 133 -196 98 -193 131
-450 84 -648 -4 -16 -7 -32 -8 -35 -50 -222 -213 -456 -406 -586 -130 -87
-321 -158 -444 -167 -30 -2 -57 -6 -59 -8 -3 -2 24 -25 59 -51 218 -163 536
-211 795 -120 272 95 480 315 560 592 29 98 36 312 14 414 -26 122 -80 240
-158 346 -39 53 -220 240 -281 291 -95 78 -305 209 -305 191z"/>
<path d="M877 2954 c-341 -68 -607 -310 -696 -633 l-20 -71 22 -1 c54 -3 52 0
47 -69 -6 -98 -5 -296 3 -375 29 -280 127 -558 282 -795 153 -235 380 -451
605 -577 118 -66 148 -80 230 -112 47 -18 95 -37 108 -42 52 -20 200 -55 297
-70 39 -5 84 -12 100 -14 35 -6 328 -6 365 -1 167 24 252 43 381 86 579 192
1028 669 1178 1252 47 184 56 255 56 463 0 213 -16 337 -62 495 l-17 55 -11
-85 c-24 -167 -70 -289 -161 -427 -194 -291 -517 -456 -864 -440 -135 7 -159
11 -265 44 -152 48 -278 125 -400 246 l-85 84 3 94 c8 244 -81 474 -252 650
-96 99 -260 192 -406 230 -102 26 -336 34 -438 13z m-58 -313 c38 -21 53 -79
31 -122 -11 -19 -56 -46 -75 -44 -37 4 -63 18 -78 44 -20 34 -21 57 -3 90 26
46 75 59 125 32z"/>
</g>
</svg>
