<?xml version="1.0" encoding="utf-8"?>
<!-- Generator: Adobe Illustrator 19.1.0, SVG Export Plug-In . SVG Version: 6.00 Build 0)  -->
<!DOCTYPE svg PUBLIC "-//W3C//DTD SVG 1.1//EN" "http://www.w3.org/Graphics/SVG/1.1/DTD/svg11.dtd">
<svg version="1.1" xmlns="http://www.w3.org/2000/svg" xmlns:xlink="http://www.w3.org/1999/xlink" x="0px" y="0px" width="57.21px"
	 height="25.089px" viewBox="0 0 57.21 25.089" enable-background="new 0 0 57.21 25.089" xml:space="preserve">
<g id="Layer_1">
</g>
<g id="Layer_3" display="none">
</g>
<g id="Layer_2">
	<g>
		<path fill="#231F20" d="M47.475,9.995l6.198,4.961c0.275,0.22,0.685,0.082,0.771-0.258l2.75-10.808
			c0.109-0.427-0.364-0.766-0.734-0.524l-8.948,5.847C47.237,9.392,47.218,9.789,47.475,9.995z"/>
		<path fill="#231F20" d="M55.512,0.821C55.908,0.602,55.753,0,55.301,0H25.838c-0.39,0-0.572,0.484-0.279,0.741l11.247,9.854
			c0.222,0.195,0.542,0.229,0.801,0.087L55.512,0.821z"/>
		<path fill="#231F20" d="M23.635,3.138l-2.491,9.581c-0.124,0.478,0.427,0.843,0.818,0.541l6.989-5.378
			c0.254-0.195,0.272-0.571,0.038-0.79L24.491,2.89C24.204,2.622,23.734,2.758,23.635,3.138z"/>
		<path fill="#231F20" d="M37.241,14.785c-0.159,0.109-0.359,0.165-0.553,0.165c-0.191,0-0.383-0.056-0.546-0.165l-5.301-4.414
			c-0.219-0.182-0.535-0.188-0.76-0.013l-10.307,7.988c-0.085,0.063-0.175,0.11-0.275,0.141v0.111l-1.582,5.722
			c-0.107,0.387,0.184,0.769,0.585,0.769h32.963c0.284,0,0.53-0.197,0.592-0.474l1.379-6.132l0.061-0.314l-8.645-7.006
			c-0.189-0.153-0.452-0.179-0.667-0.064L37.241,14.785z"/>
		<path fill="#231F20" d="M17.796,13.202H1.77c-0.213,0-0.409,0.119-0.508,0.308l-0.406,0.779c-0.198,0.381,0.077,0.836,0.506,0.837
			l16.205,0.036c0.257,0.001,0.484-0.171,0.553-0.419l0.227-0.815C18.449,13.564,18.175,13.202,17.796,13.202z"/>
		<path fill="#231F20" d="M0.493,22.889l-0.444,0.938c-0.155,0.327,0.082,0.703,0.444,0.705l14.44,0.06
			c0.218,0.001,0.41-0.141,0.474-0.349l0.287-0.939c0.097-0.316-0.139-0.637-0.47-0.638l-14.283-0.06
			C0.749,22.606,0.575,22.716,0.493,22.889z"/>
		<path fill="#231F20" d="M16.761,19.475l0.242-0.907c0.086-0.323-0.157-0.639-0.491-0.639H6.516c-0.21,0-0.399,0.129-0.474,0.326
			l-0.349,0.907c-0.128,0.333,0.118,0.691,0.474,0.691h10.102C16.5,19.853,16.701,19.698,16.761,19.475z"/>
	</g>
</g>
</svg>
