<?xml version="1.0" encoding="utf-8"?>
<!-- Generator: Adobe Illustrator 19.1.0, SVG Export Plug-In . SVG Version: 6.00 Build 0)  -->
<!DOCTYPE svg PUBLIC "-//W3C//DTD SVG 1.1//EN" "http://www.w3.org/Graphics/SVG/1.1/DTD/svg11.dtd">
<svg version="1.1" xmlns="http://www.w3.org/2000/svg" xmlns:xlink="http://www.w3.org/1999/xlink" x="0px" y="0px"
	 width="37.929px" height="29.575px" viewBox="0 0 37.929 29.575" enable-background="new 0 0 37.929 29.575" xml:space="preserve">
<g id="Layer_1">
</g>
<g id="Layer_3" display="none">
</g>
<g id="Layer_2">
	<path fill="#231F20" d="M20.365,0.024C8.253-0.43-0.387,5.503,0.013,13.083c0,5.066,6.917,9.662,13.786,11.238
		c0,0,1.267,1.938-0.779,4.732c-0.201,0.275,0.094,0.641,0.397,0.486c2.4-1.229,5.529-3.572,6.735-4.407
		c0.476-0.329,0.608-0.044,1.053-0.147c0.382-0.055,0.704-0.071,0.862-0.077c8.901-0.565,15.863-5.515,15.863-11.541
		C37.929,6.968,30.061,0.024,20.365,0.024z"/>
</g>
</svg>
