<?xml version="1.0" encoding="utf-8"?>
<!-- Generator: Adobe Illustrator 19.1.0, SVG Export Plug-In . SVG Version: 6.00 Build 0)  -->
<!DOCTYPE svg PUBLIC "-//W3C//DTD SVG 1.1//EN" "http://www.w3.org/Graphics/SVG/1.1/DTD/svg11.dtd">
<svg version="1.1" xmlns="http://www.w3.org/2000/svg" xmlns:xlink="http://www.w3.org/1999/xlink" x="0px" y="0px"
	 width="25.218px" height="35.23px" viewBox="0 0 25.218 35.23" enable-background="new 0 0 25.218 35.23" xml:space="preserve">
<g id="Layer_1">
</g>
<g id="Layer_3" display="none">
</g>
<g id="Layer_2">
	<g>
		<path fill="#231F20" d="M25.044,31.889v-0.008l-4.601-7.776c-0.352-0.603-1.117-0.787-1.71-0.439l-2.362,1.4
			c-0.209,0.124-0.278,0.394-0.154,0.604l0,0c-1.214,0.546-2.291-0.686-4.199-3.274L8.094,15.77
			c-0.775-1.694-1.388-3.415-0.21-4.245l0,0c0.069,0.118,0.221,0.158,0.339,0.088l2.527-1.493v-0.006
			c0.628-0.372,0.778-1.146,0.438-1.717V8.391l-4.6-7.777C6.237,0.012,5.471-0.174,4.88,0.175L2.422,1.633
			C2.267,1.725,2.217,1.925,2.309,2.079l0,0C0.791,3.327-3.003,9.221,4.524,22.295c7.812,13.569,15.256,13.485,17.145,12.606l0,0
			c0.106,0.182,0.339,0.243,0.521,0.136l2.412-1.424v-0.004C25.231,33.235,25.379,32.462,25.044,31.889z"/>
	</g>
</g>
</svg>
